# xmcd
#
# Track frame offsets:
#	150
#	5572
#	22827
#	38752
#	58550
#	76301
#	98407
#	118199
#	137613
#	152498
#	170004
#	188809
#	210280
#	226495
#
# Disc length: 3286 seconds
#
# Revision: 0
# Processed by: cddbd v1.5.1PL0 Copyright (c) Steve Scherf et al.
# Submitted via: dBpowerAMP V4.0
#
DISCID=a20cd40e
DTITLE=陶吉吉 - 太平盛世
DYEAR=2005
DGENRE=Pop
TTITLE0=01-鬼Ghost-Overture
TTITLE1=02-鬼GHOST
TTITLE2=03-CATHERINE
TTITLE3=04-就是愛你
TTITLE4=05-孫子兵法
TTITLE5=06-愛我還是他
TTITLE6=07-SUSAN說
TTITLE7=08-無緣
TTITLE8=09-Sule與Lampe的寓言
TTITLE9=10-2Night•藏愛
TTITLE10=11-她的歌
TTITLE11=12-愛是個什麼東西
TTITLE12=13-禱告良辰歌
TTITLE13=14-林依晨-孤單北半球
EXTD=eee
EXTT0=
EXTT1=
EXTT2=
EXTT3=
EXTT4=
EXTT5=
EXTT6=
EXTT7=
EXTT8=
EXTT9=
EXTT10=
EXTT11=
EXTT12=
EXTT13=
PLAYORDER=
